<?xml version="1.0" standalone="no"?><!DOCTYPE svg PUBLIC "-//W3C//DTD SVG 1.1//EN" "http://www.w3.org/Graphics/SVG/1.1/DTD/svg11.dtd"><svg t="1504797981924" class="icon" style="" viewBox="0 0 1024 1024" version="1.1" xmlns="http://www.w3.org/2000/svg" p-id="18671" xmlns:xlink="http://www.w3.org/1999/xlink" width="128" height="128"><defs><style type="text/css"></style></defs><path d="M507.1872 431.2064c-13.1072 0-23.4496 2.9696-34.6112 13.312s-19.5584 19.968-25.1904 39.0144S434.176 519.5776 434.176 534.3232c0 19.7632 3.8912 34.2016 11.776 43.52 7.8848 9.3184 22.6304 13.9264 34.304 13.9264 8.704 0 14.336-3.2768 21.9136-7.68 5.8368-3.072 11.5712-7.9872 17.2032-14.6432 8.0896-9.4208 15.0528-23.2448 20.992-41.472 5.9392-18.1248 13.2096-33.9968 13.2096-49.664 0-17.5104-5.12-24.7808-13.1072-34.2016S519.3728 431.2064 507.1872 431.2064zM512 64.9216C265.1136 64.9216 64.9216 265.1136 64.9216 512S265.1136 959.0784 512 959.0784 959.0784 758.8864 959.0784 512 758.8864 64.9216 512 64.9216zM728.6784 636.7232c-0.3072 5.3248-2.6624 10.24-6.4512 13.9264-12.0832 22.016-31.8464 41.5744-56.832 55.6032-36.1472 20.48-80.384 30.72-132.5056 30.72-50.3808 0-94.0032-8.704-130.6624-25.9072-36.6592-17.3056-64-45.056-81.8176-78.848s-26.8288-70.4512-26.8288-110.2848c0-43.6224 10.1376-84.2752 30.5152-121.856 20.2752-37.5808 48.128-65.8432 83.456-84.7872 35.328-18.8416 75.6736-28.2624 121.0368-28.2624 38.5024 0 72.704 7.5776 102.7072 22.8352 29.9008 15.2576 50.2784 36.864 66.1504 64.8192s20.992 58.6752 20.992 91.8528c0 39.6288-11.5712 78.4384-32.0512 107.3152-23.9616 33.8944-67.4816 59.2896-114.4832 59.2896-12.6976 0-22.2208-2.2528-28.672-6.7584-6.4512-4.5056-10.6496-11.0592-12.8-19.7632-18.0224 17.7152-38.8096 26.5216-62.3616 26.5216-12.8 0-33.1776-5.12-49.9712-22.8352s-25.2928-43.9296-24.2688-73.4208c1.2288-38.4 14.9504-72.9088 28.8768-94.8224 23.552-37.2736 58.2656-53.6576 81.408-53.6576 27.2384 0 57.6512 13.1072 70.656 34.2016l2.048-7.7824c-0.4096-1.2288-0.6144-2.4576-0.7168-3.7888l-0.2048-1.9456c-0.2048-11.1616 8.6016-20.3776 19.6608-20.5824 11.1616-0.2048 20.3776 8.6016 20.5824 19.6608 0 0.3072 0 0.6144 0 0.9216l0 0.2048 0.3072 0-0.2048 0.6144 0.1024 1.024c-0.1024 3.4816-1.024 6.8608-2.8672 9.8304L579.584 554.8032c-2.1504 10.5472-3.1744 18.432-3.1744 21.504 0 3.8912 0.9216 6.7584 2.6624 8.704 1.536 1.8432 3.8912 2.9696 6.3488 2.8672 7.3728 0 33.1776-10.5472 44.7488-19.5584 15.5648-11.776 24.8832-22.6304 34.5088-42.496s12.1856-40.448 12.1856-61.7472c0-38.1952-8.0896-70.144-35.328-95.8464s-65.2288-38.912-113.9712-38.912c-41.472 0-74.3424 8.9088-103.1168 26.112-28.672 16.896-51.5072 42.1888-65.4336 72.4992-14.6432 31.1296-22.8352 63.488-22.8352 97.1776 0 32.768 7.9872 61.44 24.2688 88.2688 16.384 27.0336 40.8576 48.2304 69.9392 60.416 29.3888 12.288 60.928 20.0704 98.816 20.0704 36.5568 0 67.8912-6.7584 94.208-17.1008s47.4112-24.8832 63.488-45.568l0.3072 0c0.7168-11.3664 10.5472-20.0704 21.9136-19.3536 10.8544 0.7168 19.2512 9.5232 19.456 20.3776l1.7408 0C729.9072 633.9584 729.1904 635.2896 728.6784 636.7232z" p-id="18672" fill="#f4ea2a"></path></svg>